<svg width="20" height="14" viewBox="0 0 20 14" fill="none" xmlns="http://www.w3.org/2000/svg">
<path fill-rule="evenodd" clip-rule="evenodd" d="M8.063 6.572C8.81253 7.02269 9.39369 7.70663 9.71749 8.51908C10.0413 9.33153 10.0899 10.2277 9.85585 11.0704C9.62181 11.9131 9.11801 12.6559 8.42162 13.185C7.72522 13.7141 6.8746 14.0004 6 14H0V0H5C5.76148 8.8461e-05 6.5071 0.21753 7.14926 0.62677C7.79142 1.03601 8.30342 1.62005 8.6251 2.31024C8.94678 3.00043 9.06476 3.76811 8.96519 4.52304C8.86562 5.27798 8.55263 5.98881 8.063 6.572ZM2 8V12H6C6.53043 12 7.03914 11.7893 7.41421 11.4142C7.78929 11.0391 8 10.5304 8 10C8 9.46957 7.78929 8.96086 7.41421 8.58579C7.03914 8.21071 6.53043 8 6 8H2ZM15.638 12C16.678 12 17.318 11.787 17.659 11.467C17.839 11.298 17.914 11.111 17.914 11H19.914C19.914 12.627 18.451 14 15.638 14C12.855 14 11 12.196 11 9C11 6.034 12.58 4 15.5 4C18.42 4 20 6.034 20 9V10H13.089C13.36 11.377 14.248 12 15.638 12ZM17.915 8C17.666 6.69 16.873 6 15.5 6C14.127 6 13.334 6.69 13.085 8H17.915ZM12 3V1H19V3H12ZM2 2V6H5C5.53043 6 6.03914 5.78929 6.41421 5.41421C6.78929 5.03914 7 4.53043 7 4C7 3.46957 6.78929 2.96086 6.41421 2.58579C6.03914 2.21071 5.53043 2 5 2H2Z" fill="black"/>
</svg>
