<svg width="12" height="12" viewBox="0 0 12 12" fill="none" xmlns="http://www.w3.org/2000/svg">
<path id="Vector" fill-rule="evenodd" clip-rule="evenodd" d="M10.6667 7.33333V10.6667C10.6667 11.0203 10.5262 11.3594 10.2761 11.6095C10.0261 11.8595 9.68696 12 9.33333 12H1.33333C0.979711 12 0.640573 11.8595 0.390524 11.6095C0.140476 11.3594 0 11.0203 0 10.6667V2.66667C0 2.31304 0.140476 1.97391 0.390524 1.72386C0.640573 1.47381 0.979711 1.33333 1.33333 1.33333H4.66667V2.66667H1.33333V10.6667H9.33333V7.33333H10.6667ZM10.6647 2.276L5.80267 7.138L4.86 6.19533L9.722 1.33333H6.66467V0H11.998V5.33333H10.6647V2.276Z" fill="black"/>
</svg>
