<svg width="18" height="21" viewBox="0 0 18 21" fill="none" xmlns="http://www.w3.org/2000/svg">
<path fill-rule="evenodd" clip-rule="evenodd" d="M7.017 18.004C7.02118 18.1263 7.00975 18.2486 6.983 18.368C6.93271 18.5961 6.84593 18.8146 6.726 19.015C6.373 19.608 5.773 20.003 5 20.003C3.18 20.003 2.466 19.11 1.572 16.874C0.966 15.36 0.68 15.003 0 15.003V13.003C1.82 13.003 2.534 13.896 3.428 16.132C4.034 17.646 4.32 18.002 5 18.002C5 17.712 4.996 17.456 4.988 17.108C4.968 16.292 4.966 16.125 5.001 15.908C5.016 15.431 5.139 15.093 5.385 14.758C3.153 14.272 1.648 13.268 0.784 11.641L0.46 10.881C0.145 9.97299 0 8.94699 0 7.75999C0 6.39499 0.416 5.17399 1.194 4.15399C0.951 3.18399 0.984 1.99799 1.52 0.659995L1.695 0.221995L2.145 0.0789948C2.205 0.0589948 2.277 0.0419948 2.363 0.0289948C3.237 -0.109005 4.48 0.218995 6.106 1.25899C7.08453 1.03549 8.08527 0.92377 9.089 0.925995C9.997 0.925995 10.899 1.01699 11.762 1.19799C13.343 0.207995 14.552 -0.103005 15.402 0.0279949C15.487 0.0419949 15.56 0.0589948 15.619 0.0779948L16.071 0.220995L16.246 0.660995C16.715 1.83799 16.795 2.92199 16.624 3.87099C17.518 4.94499 18 6.26399 18 7.76199C18 9.02499 17.91 9.974 17.65 10.898L17.375 11.652C16.656 13.277 15.071 14.292 12.628 14.775C12.882 15.127 13 15.484 13 16.003V17.003L12.999 18.003C12.9994 18.0246 13.0021 18.046 13.007 18.067L13 20.003C12.148 20.003 11.515 19.588 11.203 18.933C11.0618 18.6387 10.9923 18.3153 11 17.989V16.003C11 15.919 10.997 15.914 10.793 15.71C10.247 15.164 10 14.752 10 14.003V13.098L10.9 13.008C13.58 12.738 15.037 11.995 15.52 10.908L15.745 10.291C15.925 9.645 16 8.85899 16 7.76099C16 6.59599 15.593 5.63199 14.823 4.86299L14.4 4.43999L14.573 3.86699C14.726 3.35799 14.763 2.75599 14.6 2.06899C14.5719 2.076 14.5439 2.08333 14.516 2.09099C13.981 2.24099 13.312 2.56099 12.506 3.09899L12.139 3.34399L11.71 3.23799C10.852 3.02915 9.972 2.92473 9.089 2.92699C8.088 2.92699 7.099 3.05399 6.184 3.30299L5.738 3.42499L5.357 3.16399C4.524 2.59399 3.831 2.25399 3.277 2.09599C3.23916 2.08539 3.20116 2.07539 3.163 2.06599C2.97 2.86099 3.046 3.51399 3.243 4.00399L3.477 4.59199L3.047 5.05599C2.36 5.79599 2 6.69499 2 7.76199C2 8.73899 2.114 9.548 2.324 10.158L2.586 10.778C3.24 12.005 4.629 12.743 7.106 13.008L8 13.104V14.003C8 14.753 7.753 15.164 7.207 15.71C7.003 15.914 7 15.92 7 16.003L6.983 16.188C6.971 16.248 6.971 16.405 6.987 17.06C6.994 17.36 6.998 17.599 7 17.848C7.01079 17.8993 7.01649 17.9516 7.017 18.004Z" fill="black"/>
</svg>
