<svg width="20" height="20" viewBox="0 0 20 20" fill="none" xmlns="http://www.w3.org/2000/svg">
<path fill-rule="evenodd" clip-rule="evenodd" d="M6 0H14C15.5913 0 17.1174 0.632141 18.2426 1.75736C19.3679 2.88258 20 4.4087 20 6V14C20 15.5913 19.3679 17.1174 18.2426 18.2426C17.1174 19.3679 15.5913 20 14 20H6C4.4087 20 2.88258 19.3679 1.75736 18.2426C0.632141 17.1174 0 15.5913 0 14V6C0 4.4087 0.632141 2.88258 1.75736 1.75736C2.88258 0.632141 4.4087 0 6 0ZM6 2C4.93913 2 3.92172 2.42143 3.17157 3.17157C2.42143 3.92172 2 4.93913 2 6V14C2 15.0609 2.42143 16.0783 3.17157 16.8284C3.92172 17.5786 4.93913 18 6 18H14C15.0609 18 16.0783 17.5786 16.8284 16.8284C17.5786 16.0783 18 15.0609 18 14V6C18 4.93913 17.5786 3.92172 16.8284 3.17157C16.0783 2.42143 15.0609 2 14 2H6ZM10 15C8.67392 15 7.40215 14.4732 6.46447 13.5355C5.52678 12.5979 5 11.3261 5 10C5 8.67392 5.52678 7.40215 6.46447 6.46447C7.40215 5.52678 8.67392 5 10 5C11.3261 5 12.5979 5.52678 13.5355 6.46447C14.4732 7.40215 15 8.67392 15 10C15 11.3261 14.4732 12.5979 13.5355 13.5355C12.5979 14.4732 11.3261 15 10 15ZM10 13C10.7956 13 11.5587 12.6839 12.1213 12.1213C12.6839 11.5587 13 10.7956 13 10C13 9.20435 12.6839 8.44129 12.1213 7.87868C11.5587 7.31607 10.7956 7 10 7C9.20435 7 8.44129 7.31607 7.87868 7.87868C7.31607 8.44129 7 9.20435 7 10C7 10.7956 7.31607 11.5587 7.87868 12.1213C8.44129 12.6839 9.20435 13 10 13ZM15 6C14.7348 6 14.4804 5.89464 14.2929 5.70711C14.1054 5.51957 14 5.26522 14 5C14 4.73478 14.1054 4.48043 14.2929 4.29289C14.4804 4.10536 14.7348 4 15 4C15.2652 4 15.5196 4.10536 15.7071 4.29289C15.8946 4.48043 16 4.73478 16 5C16 5.26522 15.8946 5.51957 15.7071 5.70711C15.5196 5.89464 15.2652 6 15 6Z" fill="black"/>
</svg>
