<svg width="18" height="23" viewBox="0 0 18 23" fill="none" xmlns="http://www.w3.org/2000/svg">
<path fill-rule="evenodd" clip-rule="evenodd" d="M9.658 21.753L9 22.328L8.342 21.753C2.812 16.923 0 12.707 0 9C0 3.75 4.097 0 9 0C13.903 0 18 3.75 18 9C18 12.707 15.189 16.924 9.658 21.753ZM2 9C2 11.85 4.307 15.434 9 19.663C13.693 15.433 16 11.849 16 9C16 4.897 12.836 2 9 2C5.164 2 2 4.897 2 9ZM9 4C10.3261 4 11.5979 4.52678 12.5355 5.46447C13.4732 6.40215 14 7.67392 14 9C14 10.3261 13.4732 11.5979 12.5355 12.5355C11.5979 13.4732 10.3261 14 9 14C7.67392 14 6.40215 13.4732 5.46447 12.5355C4.52678 11.5979 4 10.3261 4 9C4 7.67392 4.52678 6.40215 5.46447 5.46447C6.40215 4.52678 7.67392 4 9 4ZM9 6C8.20435 6 7.44129 6.31607 6.87868 6.87868C6.31607 7.44129 6 8.20435 6 9C6 9.79565 6.31607 10.5587 6.87868 11.1213C7.44129 11.6839 8.20435 12 9 12C9.79565 12 10.5587 11.6839 11.1213 11.1213C11.6839 10.5587 12 9.79565 12 9C12 8.20435 11.6839 7.44129 11.1213 6.87868C10.5587 6.31607 9.79565 6 9 6Z" fill="black"/>
</svg>
