<svg width="20" height="20" viewBox="0 0 20 20" fill="none" xmlns="http://www.w3.org/2000/svg">
<path fill-rule="evenodd" clip-rule="evenodd" d="M16 11H18V18C18 18.5304 17.7893 19.0391 17.4142 19.4142C17.0391 19.7893 16.5304 20 16 20H2C1.46957 20 0.960859 19.7893 0.585786 19.4142C0.210714 19.0391 0 18.5304 0 18V4C0 3.46957 0.210714 2.96086 0.585786 2.58579C0.960859 2.21071 1.46957 2 2 2H9V4H2V18H16V11ZM15 10C13.6739 10 12.4021 9.47322 11.4645 8.53553C10.5268 7.59785 10 6.32608 10 5C10 3.67392 10.5268 2.40215 11.4645 1.46447C12.4021 0.526784 13.6739 0 15 0C16.3261 0 17.5979 0.526784 18.5355 1.46447C19.4732 2.40215 20 3.67392 20 5C20 6.32608 19.4732 7.59785 18.5355 8.53553C17.5979 9.47322 16.3261 10 15 10ZM15 8C15.7956 8 16.5587 7.68393 17.1213 7.12132C17.6839 6.55871 18 5.79565 18 5C18 4.20435 17.6839 3.44129 17.1213 2.87868C16.5587 2.31607 15.7956 2 15 2C14.2044 2 13.4413 2.31607 12.8787 2.87868C12.3161 3.44129 12 4.20435 12 5C12 5.79565 12.3161 6.55871 12.8787 7.12132C13.4413 7.68393 14.2044 8 15 8Z" fill="black"/>
</svg>
