<svg width="21" height="19" viewBox="0 0 21 19" fill="none" xmlns="http://www.w3.org/2000/svg">
<path fill-rule="evenodd" clip-rule="evenodd" d="M19.12 2.508L20.534 2.673L19.898 3.948L18.967 5.813C18.9217 5.9545 18.8553 6.08834 18.77 6.21C18.73 6.273 18.593 6.472 18.587 6.482C18.5581 6.52464 18.5307 6.56834 18.505 6.613V9.002C18.505 15.114 12.59 18.997 7.004 18.997C5.861 18.997 4.992 18.943 3.998 18.726C2.361 18.369 1.143 17.659 0.585999 16.418L0.0119993 15.141L1.407 15.012C2.668 14.896 3.762 14.656 4.602 14.334C2.296 13.964 1.004 12.951 1.004 11.049V10.049H2.004C2.224 10.049 2.421 10.031 2.599 9.999C0.867999 8.963 -7.48609e-07 7.303 -7.48609e-07 5.001V4.797C-0.00700075 3.637 0.0549992 3.017 0.372999 2.226C0.576999 1.718 0.870999 1.249 1.267 0.819L2.023 0L2.756 0.838C5.174 3.602 7.564 5.278 10.004 5.481C10.014 2.931 11.942 1.001 14.504 1.001C15.699 1.001 16.783 1.455 17.634 2.273C18.101 2.369 18.596 2.447 19.12 2.508ZM16.909 4.162L16.602 4.092L16.39 3.86C15.878 3.299 15.236 3.002 14.504 3.002C13.041 3.002 12.004 4.044 12.004 5.502C12.004 5.74 11.998 5.889 11.968 6.086C11.85 6.871 11.41 7.502 10.504 7.502C7.506 7.502 4.801 5.895 2.164 3.152C2.028 3.566 1.996 3.99 2 4.787L2.001 5.002C2.001 7.05 2.831 8.17 4.795 8.794L5.493 9.016V9.747C5.493 10.634 4.653 11.469 3.423 11.843C3.986 12.271 5.139 12.502 7.003 12.502H8.003V13.502C8.003 14.934 6.358 16.056 3.871 16.642C4.681 16.89 5.761 16.997 7.004 16.997C11.618 16.997 16.504 13.789 16.504 9.002V6.502C16.504 6.208 16.59 5.952 16.731 5.688C16.786 5.584 16.847 5.485 16.923 5.372L17.031 5.212L17.111 5.054L17.495 4.284C17.299 4.2468 17.1036 4.20613 16.909 4.162Z" fill="black"/>
</svg>
